<svg width="16" height="16" viewBox="0 0 16 16" fill="none" xmlns="http://www.w3.org/2000/svg">
<path fill-rule="evenodd" clip-rule="evenodd" d="M8.00044 1.30938L6.34084 3.02651C6.1642 3.20927 5.92091 3.31248 5.66673 3.31248H3.31294V5.66627C3.31294 5.92045 3.20973 6.16374 3.02696 6.34038L1.30984 7.99998L3.02696 9.65958C3.20973 9.83623 3.31294 10.0795 3.31294 10.3337V12.6875H5.66673C5.92091 12.6875 6.16419 12.7907 6.34084 12.9735L8.00044 14.6906L9.66004 12.9735C9.83668 12.7907 10.08 12.6875 10.3341 12.6875H12.6879V10.3337C12.6879 10.0795 12.7911 9.83622 12.9739 9.65958L14.691 7.99998L12.9739 6.34039C12.7911 6.16374 12.6879 5.92046 12.6879 5.66628V3.31248H10.3341C10.08 3.31248 9.83668 3.20927 9.66004 3.02651L8.00044 1.30938ZM7.32633 0.388057C7.69486 0.00675581 8.30602 0.00675648 8.67455 0.388057L10.4137 2.18748H12.8754C13.3932 2.18748 13.8129 2.60722 13.8129 3.12498V5.58673L15.6124 7.32587C15.9937 7.6944 15.9937 8.30556 15.6124 8.67409L13.8129 10.4132V12.875C13.8129 13.3927 13.3932 13.8125 12.8754 13.8125H10.4137L8.67455 15.6119C8.30602 15.9932 7.69485 15.9932 7.32633 15.6119L5.58719 13.8125H3.12544C2.60767 13.8125 2.18794 13.3927 2.18794 12.875V10.4132L0.388514 8.67409C0.0072144 8.30556 0.00721364 7.6944 0.388514 7.32587L2.18794 5.58673V3.12498C2.18794 2.60721 2.60767 2.18748 3.12544 2.18748H5.58719L7.32633 0.388057Z" fill="#0B8F99"/>
<path fill-rule="evenodd" clip-rule="evenodd" d="M4.43794 7.99998C4.43794 6.03247 6.03293 4.43748 8.00044 4.43748C9.96795 4.43748 11.5629 6.03247 11.5629 7.99998C11.5629 9.9675 9.96795 11.5625 8.00044 11.5625C6.03293 11.5625 4.43794 9.9675 4.43794 7.99998ZM8.00044 5.56248C6.65425 5.56248 5.56294 6.65379 5.56294 7.99998C5.56294 9.34618 6.65425 10.4375 8.00044 10.4375C9.34663 10.4375 10.4379 9.34618 10.4379 7.99998C10.4379 6.65379 9.34663 5.56248 8.00044 5.56248Z" fill="#0B8F99"/>
</svg>
