<svg width="11" height="20" viewBox="0 0 11 20" fill="none" xmlns="http://www.w3.org/2000/svg">
<path d="M7.60412 0.760665C6.06352 0.585312 4.508 0.585312 2.9674 0.760665L1.37207 0.942247C1.13609 0.969106 0.951571 1.15827 0.930576 1.39484L0.807951 2.77662C0.601777 5.09985 0.601777 7.43677 0.807951 9.76L0.930576 11.1418C0.953472 11.3998 1.16961 11.5976 1.42862 11.5976H3.50005V19C3.50005 19.2124 3.63426 19.4017 3.83473 19.4719C4.0352 19.5421 4.25816 19.478 4.39073 19.3121L4.78142 18.8229C7.11083 15.9064 8.9657 12.6408 10.2777 9.14641L10.4681 8.63918C10.5258 8.48562 10.5045 8.31355 10.4111 8.17871C10.3177 8.04388 10.1641 7.96343 10 7.96343H7.28696L9.61243 1.61092C9.66514 1.46694 9.64888 1.30675 9.56831 1.1763C9.48775 1.04586 9.35179 0.959586 9.19945 0.942247L7.60412 0.760665Z" fill="#00CC66"/>
</svg>
